<?xml version="1.0" encoding="UTF-8"?>
<!DOCTYPE svg PUBLIC "-//W3C//DTD SVG 1.1//EN" "http://www.w3.org/Graphics/SVG/1.1/DTD/svg11.dtd">
<!-- Creator: CorelDRAW X6 -->
<svg xmlns="http://www.w3.org/2000/svg" xml:space="preserve" width="287px" height="287px" version="1.1" style="shape-rendering:geometricPrecision; text-rendering:geometricPrecision; image-rendering:optimizeQuality; fill-rule:evenodd; clip-rule:evenodd"
viewBox="0 0 2870 2870"
 xmlns:xlink="http://www.w3.org/1999/xlink">
 <defs>
  <style type="text/css">
   <![CDATA[
    .fil0 {fill:white;fill-rule:nonzero}
   ]]>
  </style>
 </defs>
 <g id="Слой_x0020_1">
  <metadata id="CorelCorpID_0Corel-Layer"/>
  <path class="fil0" d="M998 1437l135 0 0 -626 347 0c65,0 124,8 177,23 53,15 98,38 136,68 38,31 68,70 89,117 22,47 33,103 33,169 0,65 -12,122 -34,170 -23,48 -54,89 -93,121 -40,32 -86,56 -139,71 -53,16 -111,24 -173,24l-191 0 0 198 305 0 0 129 -305 0 0 163 -152 0 0 -163 -135 0 0 -129 135 0 0 -198 -135 0 0 -137zm482 0c87,0 156,-21 206,-62 50,-41 75,-104 75,-187 0,-84 -25,-145 -75,-183 -50,-38 -119,-57 -206,-57l-195 0 0 489 195 0zm0 0z"/>
 </g>
</svg>
