<?xml version="1.0" encoding="UTF-8"?>
<!DOCTYPE svg PUBLIC "-//W3C//DTD SVG 1.1//EN" "http://www.w3.org/Graphics/SVG/1.1/DTD/svg11.dtd">
<!-- Creator: CorelDRAW X6 -->
<svg xmlns="http://www.w3.org/2000/svg" xml:space="preserve" width="287px" height="287px" version="1.1" style="shape-rendering:geometricPrecision; text-rendering:geometricPrecision; image-rendering:optimizeQuality; fill-rule:evenodd; clip-rule:evenodd"
viewBox="0 0 2870 2870"
 xmlns:xlink="http://www.w3.org/1999/xlink">
 <defs>
  <style type="text/css">
   <![CDATA[
    .fil0 {fill:white;fill-rule:nonzero}
   ]]>
  </style>
 </defs>
 <g id="Слой_x0020_1">
  <metadata id="CorelCorpID_0Corel-Layer"/>
  <path class="fil0" d="M1610 869c12,39 12,69 12,130l0 432c0,64 0,94 -11,128l0 2 -2 6c-20,53 -60,89 -107,106 -22,8 -45,12 -67,12 -22,0 -45,-4 -67,-12 -47,-17 -87,-53 -107,-106l-1 -3c-6,-19 -9,-38 -11,-61 -1,-21 -1,-42 -1,-69l0 -3c0,-493 0,-524 11,-558l0 0 2 -7c20,-53 60,-88 107,-106 22,-7 45,-11 67,-11 22,0 45,4 67,11 47,18 87,53 107,106l1 3zm-113 130c0,-48 0,-72 -6,-93l0 0c-6,-14 -18,-24 -31,-29 -8,-2 -16,-4 -25,-4 -9,0 -17,2 -25,4 -13,5 -25,15 -31,29l0 1 -1 5c-5,15 -5,42 -5,519l0 3c0,27 0,47 1,61 0,12 2,22 5,32l0 0c6,14 18,24 31,29 8,3 16,4 25,4 9,0 17,-1 25,-4 13,-5 25,-15 31,-29l0 -1 1 -5c5,-15 5,-39 5,-90l0 -432z"/>
  <path class="fil0" d="M1435 1872c52,0 98,21 132,55l0 0c34,34 55,80 55,132 0,51 -21,98 -55,132l0 0 0 0c-34,34 -81,55 -132,55 -52,0 -98,-21 -132,-55 -34,-34 -55,-80 -55,-132 0,-52 21,-99 55,-132 34,-34 80,-55 132,-55zm44 143c-11,-11 -27,-18 -44,-18 -17,0 -33,7 -44,18 -11,11 -18,27 -18,44 0,17 7,33 18,44 11,11 27,18 44,18 17,0 33,-7 44,-18l0 0c11,-11 18,-27 18,-44 0,-17 -7,-33 -18,-44l0 0z"/>
 </g>
</svg>
