<?xml version="1.0" encoding="UTF-8"?>
<!DOCTYPE svg PUBLIC "-//W3C//DTD SVG 1.1//EN" "http://www.w3.org/Graphics/SVG/1.1/DTD/svg11.dtd">
<svg xmlns="http://www.w3.org/2000/svg" xml:space="preserve" width="227px" height="77px" version="1.1" style="shape-rendering:geometricPrecision; text-rendering:geometricPrecision; image-rendering:optimizeQuality; fill-rule:evenodd; clip-rule:evenodd"
viewBox="0 0 2270 766"
 xmlns:xlink="http://www.w3.org/1999/xlink">
 <defs>
  <style type="text/css">
   <![CDATA[
    .fil0 {fill:#E10F00}
    .fil1 {fill:#E10F00;fill-rule:nonzero}
   ]]>
  </style>
 </defs>
 <g id="Слой_x0020_1">
  <metadata id="CorelCorpID_0Corel-Layer"/>
  <g id="_513368416">
   <path class="fil0" d="M480 116c-427,86 -444,301 -202,631 -437,-377 -282,-606 202,-631z"/>
   <path class="fil0" d="M244 19c30,0 54,24 54,54 0,31 -24,55 -54,55 -31,0 -55,-24 -55,-55 0,-30 24,-54 55,-54z"/>
   <path class="fil1" d="M1331 606c0,3 -1,5 -1,8 -1,2 -2,5 -4,7 -1,3 -3,5 -6,7 -2,2 -5,4 -8,5 -3,2 -7,3 -12,4 -4,2 -9,2 -15,3l-2 8c0,0 -1,0 -1,1 0,0 -1,0 -2,0 0,1 -1,1 -2,1 -2,0 -3,0 -5,0 -2,0 -3,0 -4,0 -2,0 -2,0 -3,-1 -1,0 -1,0 -1,0 -1,-1 -1,-1 -1,-1l3 -8c-6,-1 -11,-1 -14,-2 -4,-2 -8,-3 -10,-5 -3,-1 -5,-4 -6,-6 -1,-2 -1,-5 -1,-8 0,-3 0,-5 1,-8 0,-2 1,-5 3,-7 1,-2 3,-5 6,-7 2,-2 5,-4 8,-5 3,-2 7,-3 12,-4 4,-2 9,-2 15,-3l2 -7c0,-1 1,-1 1,-1 0,-1 1,-1 2,-1 0,0 1,0 3,0 1,0 2,0 4,0 2,0 3,0 4,0 2,0 2,0 3,0 1,0 1,0 1,1 1,0 1,0 1,1l-3 7c6,1 11,2 15,3 4,1 7,2 10,4 2,2 4,4 5,6 1,3 2,5 2,8zm-19 2c0,-2 0,-4 -1,-5 0,-1 -1,-2 -3,-3 -1,-1 -2,-2 -4,-3 -2,0 -5,-1 -8,-1l-8 33c3,-1 6,-1 8,-2 3,-1 5,-2 6,-3 2,-1 4,-2 5,-4 1,-1 2,-3 3,-4 1,-2 1,-3 2,-4 0,-2 0,-3 0,-4zm-33 -12c-4,1 -6,1 -9,2 -2,1 -5,2 -6,3 -2,1 -4,2 -5,4 -1,1 -2,2 -3,4 -1,1 -1,3 -1,4 -1,2 -1,3 -1,4 0,2 0,3 1,5 0,1 1,2 2,3 2,1 3,2 5,3 2,0 5,1 8,1l9 -33zm131 52c0,0 0,0 -1,1 0,0 -1,0 -2,0 0,1 -1,1 -3,1 -1,0 -2,0 -4,0 -2,0 -3,0 -5,0 -1,0 -2,0 -2,-1 -1,0 -1,0 -1,0 -1,-1 -1,-1 -1,-1l8 -31c1,-1 1,-2 1,-3 1,-1 1,-3 1,-4 1,-1 1,-2 2,-4 0,-1 0,-2 1,-3l0 0c-2,2 -5,4 -7,6 -2,3 -4,5 -7,7l-36 32c-1,0 -1,1 -2,1 0,0 -1,0 -2,1 0,0 -1,0 -2,0 -1,0 -2,0 -4,0 -2,0 -3,0 -4,0 -1,0 -2,0 -3,-1 -1,0 -1,0 -1,0 0,-1 0,-1 0,-1l18 -67c0,-1 0,-1 0,-1 1,-1 1,-1 2,-1 1,0 2,0 3,0 1,-1 3,-1 5,-1 1,0 3,0 4,1 1,0 2,0 3,0 0,0 1,0 1,1 0,0 0,0 0,1l-9 33c0,1 0,2 0,3 -1,1 -1,2 -1,3 -1,1 -1,2 -1,3 -1,1 -1,2 -2,3l1 0c0,-1 1,-2 2,-3 1,-1 2,-2 4,-3 1,-1 2,-2 3,-3 1,-1 2,-2 3,-3l37 -33c1,-1 1,-1 2,-1 1,-1 1,-1 2,-1 1,0 2,0 3,0 1,-1 2,-1 3,-1 2,0 4,0 5,1 1,0 2,0 2,0 1,0 1,0 2,1 0,0 0,0 0,1l-18 67zm98 -67c0,0 0,1 0,1 0,1 -1,2 -1,2 0,1 0,2 0,2 -1,1 -1,2 -1,2 -1,1 -1,2 -2,2 0,0 -1,1 -1,1l-23 0 -15 57c0,0 -1,0 -1,1 0,0 -1,0 -2,0 -1,0 -2,1 -3,1 -1,0 -2,0 -4,0 -2,0 -4,0 -5,0 -1,0 -2,-1 -2,-1 -1,0 -1,0 -2,0 0,-1 0,-1 0,-1l15 -57 -22 0c-1,0 -1,-1 -2,-1 0,0 0,-1 0,-2 0,0 0,0 0,-1 0,-1 0,-1 0,-2 1,-1 1,-1 1,-2 0,-1 1,-2 1,-2 0,-1 1,-1 1,-2 1,0 1,0 2,0l64 0c1,0 1,0 1,0 1,1 1,1 1,2zm64 67c0,0 0,0 -1,1 0,0 -1,0 -1,0 -1,1 -2,1 -3,1 -2,0 -3,0 -5,0 -2,0 -3,0 -4,0 -1,0 -2,0 -3,-1 -1,0 -1,0 -1,0 0,-1 0,-1 0,-1l7 -29 -34 0 -7 29c-1,0 -1,0 -1,1 -1,0 -1,0 -2,0 -1,1 -2,1 -3,1 -1,0 -3,0 -4,0 -2,0 -4,0 -5,0 -1,0 -2,0 -2,-1 -1,0 -2,0 -2,0 0,-1 0,-1 0,-1l18 -67c0,-1 0,-1 1,-1 0,-1 1,-1 1,-1 1,0 2,0 3,0 2,-1 3,-1 5,-1 2,0 3,0 4,1 1,0 2,0 3,0 1,0 1,0 1,1 0,0 1,0 0,1l-7 26 35 0 6 -26c1,-1 1,-1 1,-1 1,-1 1,-1 2,-1 1,0 2,0 3,0 1,-1 3,-1 4,-1 2,0 4,0 5,1 1,0 2,0 3,0 0,0 1,0 1,1 0,0 0,0 0,1l-18 67zm91 -67c0,0 0,0 0,1 0,1 0,1 0,2 0,1 -1,1 -1,2 0,1 0,1 -1,2 0,1 -1,1 -1,1 -1,1 -1,1 -2,1l-32 0 -5 17 28 0c0,0 1,1 1,1 0,0 1,1 1,1 0,1 -1,1 -1,2 0,0 0,1 0,1 0,1 0,2 -1,2 0,1 0,2 0,2 -1,1 -1,1 -2,2 0,0 -1,0 -1,0l-28 0 -5 20 33 0c0,0 1,1 1,1 0,0 0,1 0,2 0,0 0,0 0,1 0,0 0,1 0,2 0,0 0,1 -1,2 0,0 0,1 0,2 -1,0 -1,1 -2,1 0,0 -1,1 -1,1l-46 0c-1,0 -2,0 -2,-1 -1,0 -1,0 -2,0 0,-1 0,-1 0,-2 -1,0 -1,-1 0,-2l16 -62c1,-1 1,-2 3,-3 1,-1 2,-1 4,-1l45 0c2,0 2,0 2,2zm73 5c0,1 0,2 0,4 -1,1 -1,3 -2,4 -1,1 -2,1 -2,1 -1,0 -2,0 -3,0 0,-1 -2,-2 -3,-2 -1,-1 -3,-2 -5,-2 -2,-1 -5,-1 -8,-1 -3,0 -7,0 -9,1 -3,1 -6,3 -8,5 -2,1 -4,3 -6,6 -2,2 -3,4 -4,7 -2,2 -2,5 -3,7 -1,3 -1,5 -1,7 0,3 1,5 1,7 1,2 2,3 4,5 1,1 3,2 6,3 2,0 4,1 7,1 3,0 6,-1 9,-1 2,-1 4,-1 6,-2 1,-1 3,-1 4,-2 1,0 2,-1 3,-1 1,0 1,0 1,1 0,0 0,1 0,1 0,1 0,1 0,1 0,1 0,1 0,2 0,1 0,1 -1,2 0,1 0,2 0,2 0,1 -1,1 -1,2 0,1 -1,1 -1,1 -1,1 -2,1 -3,2 -2,1 -4,1 -6,2 -2,0 -4,1 -7,1 -3,1 -6,1 -9,1 -5,0 -10,-1 -14,-2 -4,-1 -7,-3 -10,-5 -3,-2 -5,-5 -7,-8 -1,-3 -2,-7 -2,-11 0,-4 1,-7 2,-11 0,-3 2,-7 4,-10 2,-4 4,-7 7,-10 2,-4 6,-6 10,-9 3,-2 8,-4 13,-5 4,-2 10,-2 16,-2 3,0 6,0 9,0 3,1 5,2 8,3 2,0 3,1 4,2 1,1 1,2 1,3zm68 33c0,0 0,1 0,1 0,1 -1,1 -1,2 0,1 0,1 -1,2 0,1 0,1 -1,2 0,0 0,1 -1,1 0,1 -1,1 -2,1l-29 0c-1,0 -1,0 -2,-1 0,0 0,-1 0,-2 0,0 0,0 0,-1 0,-1 0,-1 0,-2 0,0 1,-1 1,-2 0,-1 1,-1 1,-2 0,0 1,-1 1,-1 1,0 1,-1 2,-1l29 0c1,0 2,1 2,1 1,1 1,1 1,2zm106 28c0,0 0,1 0,1 -1,1 -1,1 -2,1 -1,1 -2,1 -3,1 -1,0 -3,0 -5,0 -2,0 -3,0 -5,0 -1,0 -2,0 -2,-1 -1,0 -1,0 -1,-1 -1,0 -1,0 -1,-1l-3 -16c-1,-2 -1,-4 -2,-5 -1,-2 -2,-3 -3,-4 -1,-1 -2,-2 -4,-2 -2,-1 -4,-1 -6,-1l-4 0 -8 29c0,0 0,0 0,1 -1,0 -1,0 -2,0 -1,1 -2,1 -3,1 -1,0 -3,0 -4,0 -2,0 -4,0 -5,0 -1,0 -2,0 -3,-1 0,0 -1,0 -1,0 0,-1 0,-1 0,-1l18 -67c0,-1 0,-1 1,-1 0,-1 1,-1 1,-1 1,0 2,0 3,0 2,-1 3,-1 5,-1 2,0 3,0 4,1 1,0 2,0 3,0 1,0 1,0 1,1 0,0 1,0 0,1l-7 26 4 0c2,0 4,0 6,0 2,-1 3,-1 5,-2 1,-1 3,-3 4,-4 2,-2 3,-4 5,-6l10 -14c0,0 0,-1 1,-1 0,0 1,-1 2,-1 1,0 2,0 3,0 1,-1 3,-1 5,-1 2,0 3,0 4,1 2,0 2,0 3,0 1,0 1,0 1,1 0,0 0,0 0,0 0,1 0,2 0,2 -1,1 -1,2 -2,3l-10 13c-1,2 -3,4 -5,6 -1,1 -3,3 -4,4 -2,1 -3,2 -5,3 -2,1 -3,1 -5,2l0 0c2,0 3,1 4,2 2,1 3,2 4,3 1,1 2,2 2,4 1,2 2,4 2,7l4 14c0,1 0,2 0,2 0,1 0,1 0,2zm85 1c0,0 0,0 -1,1 0,0 -1,0 -2,0 0,1 -1,1 -3,1 -1,0 -2,0 -4,0 -2,0 -3,0 -4,0 -2,0 -3,0 -3,-1 -1,0 -1,0 -1,0 -1,-1 -1,-1 -1,-1l16 -57 -20 0c-3,8 -7,15 -10,22 -3,6 -5,11 -8,16 -3,4 -6,8 -8,11 -3,2 -6,5 -9,6 -2,2 -5,3 -8,4 -4,0 -7,1 -11,1 -1,0 -2,-1 -2,-1 -1,0 -1,-1 -1,-2 0,0 0,-1 0,-1 0,-1 0,-2 1,-2 0,-1 0,-2 0,-3 1,-1 1,-1 1,-2 1,-1 1,-1 2,-2 0,0 1,0 1,0 2,0 3,-1 5,-1 1,-1 3,-1 4,-3 2,-1 4,-3 6,-5 1,-3 3,-6 6,-10 2,-4 4,-9 7,-15 2,-5 5,-12 9,-20 0,-1 0,-2 1,-2 0,-1 0,-1 1,-2 0,0 1,-1 2,-1 0,0 1,0 2,0l45 0c2,0 3,0 4,1 0,1 0,2 0,3l-17 65zm69 -19c-3,4 -7,8 -9,11 -3,3 -6,5 -8,6 -3,2 -6,3 -9,4 -3,0 -6,1 -9,1 -1,0 -2,0 -4,-1 -1,0 -2,0 -3,0 -1,0 -2,-1 -3,-1 -1,0 -1,0 -2,-1 -1,0 -1,-1 -1,-2 0,0 0,-1 0,-1 0,-1 0,-2 0,-3 1,0 1,-1 1,-2 0,-1 1,-1 1,-2 0,-1 1,-1 1,-2 1,0 1,0 2,0 0,0 1,0 1,0 1,0 1,0 2,1 0,0 1,0 2,1 1,0 2,0 3,0 1,0 2,0 3,0 1,-1 2,-1 3,-2 1,0 2,-1 3,-2 1,-1 2,-2 3,-3l-17 -47c0,-1 -1,-2 -1,-3 0,-1 0,-1 1,-2 1,0 2,0 3,0 1,0 3,-1 5,-1 2,0 4,0 5,1 2,0 3,0 3,0 1,0 1,1 2,1 0,1 0,1 0,2l8 22c1,2 2,4 2,6 1,3 2,5 2,7l0 0c2,-2 4,-5 5,-7 2,-3 4,-5 6,-7l16 -22c0,-1 1,-1 1,-1 1,-1 1,-1 2,-1 1,0 2,0 4,-1 1,0 3,0 5,0 2,0 4,0 5,1 1,0 2,0 3,0 0,1 0,1 0,2 0,0 -1,1 -2,2l-35 46zm47 -46c0,-1 1,-2 2,-3 2,-1 3,-1 5,-1l51 0c2,0 2,1 2,2 0,0 0,1 0,1 0,1 0,2 0,2 -1,1 -1,2 -1,2 0,1 -1,2 -1,2 0,1 -1,1 -1,2 -1,0 -1,0 -2,0l-38 0 -5 18 10 0c4,0 7,0 9,0 3,0 5,0 7,1 2,0 5,1 7,2 2,1 4,2 5,4 2,1 3,3 3,4 1,2 1,4 1,5 0,2 0,3 0,5 -1,1 -1,3 -2,4 -1,2 -2,4 -3,5 -2,2 -3,3 -5,4 -2,2 -4,3 -7,4 -3,1 -6,2 -9,2 -2,1 -5,1 -8,1 -2,0 -6,1 -9,1l-23 0c-1,0 -2,0 -2,-1 -1,0 -1,0 -2,0 0,-1 -1,-1 -1,-2 0,0 0,-1 0,-2l17 -62zm35 43c0,-2 0,-3 -1,-4 -1,-1 -3,-2 -5,-3 -1,0 -2,0 -4,-1 -1,0 -4,0 -7,0l-9 0 -5 21 10 0c1,0 3,0 4,0 1,-1 2,-1 3,-1 0,0 1,0 2,0 1,0 1,0 2,-1 2,0 3,-1 4,-1 1,-1 2,-2 3,-3 1,-1 2,-2 2,-3 1,-2 1,-3 1,-4z"/>
   <path class="fil0" d="M967 261l-126 0c-31,0 -48,13 -57,45l-41 153c-6,22 0,45 45,45l43 0 0 0 118 0c31,0 49,-12 58,-45l41 -152c6,-22 0,-46 -45,-46l-36 0 0 0zm694 156l3 -6 31 -53 4 -6 26 -46c25,-43 44,-45 72,-44l60 -1c45,0 51,24 45,45l-40 153c-9,33 -27,45 -58,45l-26 0 19 -73 4 -14 20 -76 0 0 2 -7c8,-23 -1,-28 -19,-28 -25,0 -28,3 -42,29l-23 41 -62 106 -12 22 -54 0 -1 -22 -5 -106 -1 -41c-1,-11 -1,-19 -4,-24 -4,-5 -12,-5 -25,-5 -25,0 -28,15 -32,28l-2 7 0 0 -20 76 -4 14 -20 73 -26 0c-31,0 -42,-12 -33,-45l41 -153c5,-21 24,-45 69,-45l60 1c28,-1 46,1 48,44l2 46 0 6 3 53 0 6zm510 -156l-126 0c-31,0 -49,13 -58,45l-41 153c-6,22 0,45 45,45l15 0 19 -73 0 0 5 -16 120 0 -4 16 -20 73 26 0c32,0 49,-12 58,-45l41 -152c6,-22 0,-46 -45,-46l-35 0 0 0zm-130 110l10 -37c6,-20 17,-28 37,-28l0 0 0 0 55 0c29,0 33,15 29,28l-4 15 -6 22 -121 0zm-1558 133l118 0c31,0 49,-12 57,-45l42 -152c5,-22 0,-46 -46,-46l-106 1 0 -1 0 0 -66 0 -118 0c-31,0 -49,13 -57,45l-42 153c-5,22 0,45 46,45l106 0 -6 21c-7,25 10,52 52,52l20 -73zm-13 -198l0 0 -41 154 0 0 -56 0c-28,0 -32,-15 -28,-29l26 -97c5,-20 17,-28 37,-28l62 0zm66 0l56 0c28,0 32,15 28,28l-26 97c-5,21 -17,29 -37,29l-62 0 41 -154zm609 198l151 0c31,0 49,-12 58,-45l41 -152c6,-22 0,-46 -45,-46l-139 1 0 -1 -66 0 -72 264c-6,25 11,52 52,52l20 -73zm12 -44l96 0c20,0 31,-8 36,-29l27 -97c3,-13 0,-28 -29,-28l-88 0 -42 154zm-248 0l-58 0c-29,0 -33,-15 -29,-29l26 -97c6,-20 17,-28 37,-28l0 0 0 0 55 0c29,0 32,15 29,28l-27 97c-5,20 -15,28 -33,29z"/>
  </g>
 </g>
</svg>
