<?xml version="1.0" encoding="UTF-8"?>
<!DOCTYPE svg PUBLIC "-//W3C//DTD SVG 1.1//EN" "http://www.w3.org/Graphics/SVG/1.1/DTD/svg11.dtd">
<!-- Creator: CorelDRAW X6 -->
<svg xmlns="http://www.w3.org/2000/svg" xml:space="preserve" width="1772px" height="1772px" version="1.1" style="shape-rendering:geometricPrecision; text-rendering:geometricPrecision; image-rendering:optimizeQuality; fill-rule:evenodd; clip-rule:evenodd"
viewBox="0 0 177200 177200"
 xmlns:xlink="http://www.w3.org/1999/xlink">
 <defs>
  <style type="text/css">
   <![CDATA[
    .fil0 {fill:#ffffff;fill-rule:nonzero}
   ]]>
  </style>
 </defs>
 <g id="Слой_x0020_1">
  <metadata id="CorelCorpID_0Corel-Layer"/>
  <path class="fil0" d="M29533 101661l0 46006 28784 0 -28784 -46006zm0 0z"/>
  <path class="fil0" d="M29533 84915l34018 54389 68651 -109771 -102669 0 0 55382zm0 0z"/>
  <path class="fil0" d="M142671 29533l-73886 118134 9068 0 69814 -111618 0 -6516 -4996 0zm0 0z"/>
  <path class="fil0" d="M147667 52785l-59345 94882 9068 0 50277 -80381 0 -14501zm0 0z"/>
  <path class="fil0" d="M147667 84031l-39799 63636 39799 0 0 -63636zm0 0z"/>
 </g>
</svg>
